<svg xmlns="http://www.w3.org/2000/svg" viewBox="0 0 40 48" width="40" height="48" role="img" aria-label="EcoTrace leaf-pin logo">
  <!-- Location pin outer shape -->
  <path d="M20 2C11.163 2 4 9.163 4 18c0 11.5 16 28 16 28S36 29.5 36 18C36 9.163 28.837 2 20 2z"
        fill="#146C3C"/>
  <!-- Inner highlight circle -->
  <circle cx="20" cy="18" r="9" fill="#B7F1C8"/>
  <!-- Leaf shape inside pin -->
  <path d="M20 11 C20 11 13 15 14 21 C15 24 18 25 20 25 C22 25 25 24 26 21 C27 15 20 11 20 11Z"
        fill="#146C3C"/>
  <!-- Leaf vein -->
  <line x1="20" y1="12" x2="20" y2="24" stroke="#B7F1C8" stroke-width="1.2" stroke-linecap="round"/>
  <line x1="20" y1="17" x2="23" y2="20" stroke="#B7F1C8" stroke-width="0.8" stroke-linecap="round"/>
  <line x1="20" y1="19" x2="17" y2="22" stroke="#B7F1C8" stroke-width="0.8" stroke-linecap="round"/>
</svg>
